<?xml version="1.0" encoding="utf-8"?>
<!-- Generator: Adobe Illustrator 24.1.1, SVG Export Plug-In . SVG Version: 6.00 Build 0)  -->
<svg version="1.1" id="Layer_1" xmlns="http://www.w3.org/2000/svg" xmlns:xlink="http://www.w3.org/1999/xlink" x="0px" y="0px"
	 viewBox="0 0 512 512" style="enable-background:new 0 0 512 512;" xml:space="preserve">
<g>
	<path d="M386,171.5c-18.4,0-36.4,5.5-53.8,16.4c-17.4,10.9-31.1,22.2-41,33.8s-24.1,29.4-42.5,53.2c-16.4,21.2-29.2,37.2-38.4,48.1
		c-9.2,10.9-22.5,24.1-39.9,39.4c-17.4,15.4-35.7,26.6-54.8,33.8S75.8,407,53.2,407H0v-71.7h53.2c18.4,0,36.5-5.5,54.3-16.4
		c17.7-10.9,31.6-22.2,41.5-33.8s24.1-29.4,42.5-53.2c21.2-28,38.4-49.5,51.7-64.5c13.3-15,33.1-30,59.4-45.1
		c26.3-15,54.1-22.5,83.5-22.5h18.4V38.4L512,130.6l-107.5,92.2v-51.2H386 M138.2,216.6c-25.3-26.6-53.6-39.9-85-39.9H0V105h53.2
		c47.8,0,91.1,18.4,130,55.3c-4.8,5.5-11.1,13.1-18.9,23c-7.9,9.9-12.5,15.5-13.8,16.9C147.8,204.3,143.7,209.7,138.2,216.6
		 M404.5,340.5v-51.2L512,381.4l-107.5,92.2v-61.4H386c-47.8,0-92.2-19.8-133.1-59.4c15.7-19.8,28-35.5,36.9-47.1
		c0-0.7,1-2.2,3.1-4.6c2-2.4,3.4-4.3,4.1-5.6c28.7,30,58.4,45.1,89.1,45.1H404.5"/>
</g>
</svg>
